<svg width="1440" height="37" viewBox="0 0 1440 37" fill="none" xmlns="http://www.w3.org/2000/svg">
<rect width="1440" height="37" fill="white"/>
<rect y="36.5" width="1440" height="0.5" fill="#B6B6B6"/>
<path fill-rule="evenodd" clip-rule="evenodd" d="M22.2849 11.818C22.5752 12.1134 22.5712 12.5883 22.2758 12.8786L18.0829 17H27.75C28.1642 17 28.5 17.3358 28.5 17.75C28.5 18.1642 28.1642 18.5 27.75 18.5H18.0905L22.2742 22.5886C22.5704 22.8781 22.5759 23.353 22.2864 23.6492C21.9969 23.9454 21.522 23.9509 21.2258 23.6614L15.7258 18.2864C15.5817 18.1455 15.5003 17.9526 15.5 17.7511C15.4997 17.5496 15.5805 17.3564 15.7242 17.2151L21.2242 11.8089C21.5196 11.5185 21.9945 11.5226 22.2849 11.818Z" fill="#606367"/>
<path fill-rule="evenodd" clip-rule="evenodd" d="M53.7151 11.818C53.4248 12.1134 53.4288 12.5883 53.7242 12.8786L57.9171 17H48.25C47.8358 17 47.5 17.3358 47.5 17.75C47.5 18.1642 47.8358 18.5 48.25 18.5H57.9095L53.7258 22.5886C53.4296 22.8781 53.4241 23.353 53.7136 23.6492C54.0031 23.9454 54.478 23.9509 54.7742 23.6614L60.2742 18.2864C60.4183 18.1455 60.4997 17.9526 60.5 17.7511C60.5003 17.5496 60.4195 17.3564 60.2758 17.2151L54.7758 11.8089C54.4804 11.5185 54.0055 11.5226 53.7151 11.818Z" fill="#BABCBE"/>
<path d="M81 18C81 15.2386 83.2386 13 86 13C87.5073 13 88.8594 13.6667 89.7768 14.7232L87.5 17H93V11.5L90.8394 13.6606C89.65 12.3351 87.9228 11.5 86 11.5C82.4101 11.5 79.5 14.4101 79.5 18C79.5 21.5899 82.4101 24.5 86 24.5C88.5781 24.5 90.8042 22.999 91.8547 20.8265C92.0351 20.4536 91.8789 20.0051 91.506 19.8248C91.1331 19.6445 90.6847 19.8006 90.5043 20.1735C89.6947 21.8478 87.9812 23 86 23C83.2386 23 81 20.7614 81 18Z" fill="#606367"/>
<rect x="108" y="4" width="1288" height="28" rx="14" fill="#F1F3F4"/>
<path fill-rule="evenodd" clip-rule="evenodd" d="M126 13C124.619 13 123.5 14.1193 123.5 15.5V16.5H123C122.448 16.5 122 16.9477 122 17.5V22.5C122 23.0523 122.448 23.5 123 23.5H129C129.552 23.5 130 23.0523 130 22.5V17.5C130 16.9477 129.552 16.5 129 16.5H128.5V15.5C128.5 14.1193 127.381 13 126 13ZM127.5 16.5V15.5C127.5 14.6716 126.828 14 126 14C125.172 14 124.5 14.6716 124.5 15.5V16.5H127.5Z" fill="#606367"/>
<path d="M1419.5 13.1C1419.5 13.9284 1418.83 14.6 1418 14.6C1417.17 14.6 1416.5 13.9284 1416.5 13.1C1416.5 12.2715 1417.17 11.6 1418 11.6C1418.83 11.6 1419.5 12.2715 1419.5 13.1Z" fill="#606367"/>
<path d="M1419.5 18.1C1419.5 18.9284 1418.83 19.6 1418 19.6C1417.17 19.6 1416.5 18.9284 1416.5 18.1C1416.5 17.2715 1417.17 16.6 1418 16.6C1418.83 16.6 1419.5 17.2715 1419.5 18.1Z" fill="#606367"/>
<path d="M1419.5 23.1C1419.5 23.9284 1418.83 24.6 1418 24.6C1417.17 24.6 1416.5 23.9284 1416.5 23.1C1416.5 22.2715 1417.17 21.6 1418 21.6C1418.83 21.6 1419.5 22.2715 1419.5 23.1Z" fill="#606367"/>
</svg>
