<svg width="19" height="19" viewBox="0 0 19 19" fill="none" xmlns="http://www.w3.org/2000/svg">
<path fill-rule="evenodd" clip-rule="evenodd" d="M0.256757 16.7624C0.256757 17.8562 1.12786 18.7432 2.20244 18.7432H10.635C11.7096 18.7432 12.5811 17.8562 12.5811 16.7624V12.8012C12.5811 12.4365 12.2906 12.1408 11.9323 12.1408C11.574 12.1408 11.2835 12.4365 11.2835 12.8012V16.7624C11.2835 17.1268 10.993 17.4228 10.635 17.4228H2.20244C1.84413 17.4228 1.554 17.1268 1.554 16.7624V2.23755C1.554 1.87284 1.84413 1.57717 2.20244 1.57717H10.635C10.993 1.57717 11.2835 1.87284 11.2835 2.23755V6.19879C11.2835 6.5635 11.574 6.85882 11.9323 6.85882C12.2906 6.85882 12.5811 6.5635 12.5811 6.19879V2.23755C12.5811 1.14378 11.7096 0.256757 10.635 0.256757H2.20244C1.12786 0.256757 0.256757 1.14378 0.256757 2.23755V16.7624Z" fill="#39474E"/>
<path fill-rule="evenodd" clip-rule="evenodd" d="M0.256757 2.23755V16.7624C0.256757 17.8562 1.12786 18.7432 2.20244 18.7432H10.635C11.7096 18.7432 12.5811 17.8562 12.5811 16.7624V12.8012C12.5811 12.4365 12.2906 12.1408 11.9323 12.1408C11.574 12.1408 11.2835 12.4365 11.2835 12.8012V16.7624C11.2835 17.1268 10.993 17.4228 10.635 17.4228H2.20244C1.84413 17.4228 1.554 17.1268 1.554 16.7624V2.23755C1.554 1.87284 1.84413 1.57717 2.20244 1.57717H10.635C10.993 1.57717 11.2835 1.87284 11.2835 2.23755V6.19879C11.2835 6.5635 11.574 6.85882 11.9323 6.85882C12.2906 6.85882 12.5811 6.5635 12.5811 6.19879V2.23755C12.5811 1.14378 11.7096 0.256757 10.635 0.256757H2.20244C1.12786 0.256757 0.256757 1.14378 0.256757 2.23755Z" stroke="#39474E" stroke-width="0.5"/>
<path fill-rule="evenodd" clip-rule="evenodd" d="M6.02786 10.1756H16.5733L14.4788 12.4309C14.4736 12.4366 14.4684 12.4422 14.4632 12.4482C14.2192 12.7199 14.2261 13.1536 14.4788 13.416C14.7316 13.6787 15.134 13.6709 15.378 13.3991L18.5571 9.97579C18.6163 9.91207 18.6633 9.83636 18.6949 9.7524C18.7593 9.58522 18.7593 9.39706 18.6949 9.22951C18.6633 9.14629 18.6166 9.07058 18.5578 9.00723L15.3783 5.5839C15.1322 5.32789 14.7417 5.32789 14.4952 5.5839C14.2425 5.84628 14.2355 6.27996 14.4795 6.55171L16.5733 8.8067H6.02786C5.67663 8.8067 5.39189 9.11293 5.39189 9.49114C5.39189 9.86934 5.67663 10.1756 6.02786 10.1756Z" fill="#39474E"/>
<path fill-rule="evenodd" clip-rule="evenodd" d="M5.39189 9.49114C5.39189 9.86934 5.67663 10.1756 6.02786 10.1756H16.5733L14.4788 12.4309C14.4736 12.4366 14.4684 12.4422 14.4632 12.4482C14.2192 12.7199 14.2261 13.1536 14.4788 13.416C14.7316 13.6788 15.134 13.6709 15.378 13.3991L18.5571 9.97579C18.6163 9.91207 18.6633 9.83636 18.6949 9.7524C18.7593 9.58522 18.7593 9.39706 18.6949 9.22951C18.6633 9.14629 18.6166 9.07058 18.5578 9.00723L15.3783 5.5839C15.1322 5.32789 14.7417 5.32789 14.4952 5.5839C14.2425 5.84628 14.2355 6.27996 14.4795 6.55171L16.5733 8.8067H6.02786C5.67663 8.8067 5.39189 9.11293 5.39189 9.49114Z" stroke="#39474E" stroke-width="0.5"/>
</svg>
