<svg width="21" height="17" viewBox="0 0 21 17" fill="none" xmlns="http://www.w3.org/2000/svg">
<path fill-rule="evenodd" clip-rule="evenodd" d="M19.632 14.5347L13.8217 8.43223L19.632 2.32975V14.5347ZM2.22406 15.4354L8.06629 9.29828L10.1134 11.4304C10.3496 11.6762 10.7326 11.6762 10.9677 11.4293L12.9637 9.33292L18.774 15.4354H2.22406ZM1.36737 14.5347V2.32303L7.20534 8.40315L1.36737 14.5347ZM18.7747 1.42909L10.5386 10.0805L2.23113 1.42909H18.7747ZM19.0266 0.155168H1.97339C0.972198 0.155168 0.155073 1.01226 0.155073 2.06603V14.7973C0.155073 15.8477 0.967942 16.7071 1.97339 16.7071H19.0266C20.0246 16.7071 20.8449 15.8544 20.8449 14.7973V2.06603C20.8449 1.01673 20.031 0.155168 19.0266 0.155168Z" fill="#39474E"/>
<path d="M19.632 14.5347L19.5196 14.6417L19.7872 14.9227V14.5347H19.632ZM13.8217 8.43223L13.7093 8.32523L13.6074 8.43223L13.7093 8.53923L13.8217 8.43223ZM19.632 2.32975H19.7872V1.94174L19.5196 2.22275L19.632 2.32975ZM2.22406 15.4354L2.11167 15.3284L1.8621 15.5906H2.22406V15.4354ZM8.06629 9.29828L8.17822 9.19081L8.06581 9.07373L7.9539 9.19129L8.06629 9.29828ZM10.1134 11.4304L10.0014 11.5379L10.0015 11.5379L10.1134 11.4304ZM10.9677 11.4293L10.8553 11.3223L10.9677 11.4293ZM12.9637 9.33292L13.0761 9.22592L12.9637 9.10789L12.8513 9.22592L12.9637 9.33292ZM18.774 15.4354V15.5906H19.136L18.8864 15.3284L18.774 15.4354ZM1.36737 14.5347H1.2122V14.9227L1.47975 14.6417L1.36737 14.5347ZM1.36737 2.32303L1.4793 2.21556L1.2122 1.93737V2.32303H1.36737ZM7.20534 8.40315L7.31772 8.51016L7.42003 8.4027L7.31727 8.29568L7.20534 8.40315ZM18.7747 1.42909L18.8871 1.53608L19.1367 1.27391H18.7747V1.42909ZM10.5386 10.0805L10.4266 10.188L10.539 10.305L10.651 10.1875L10.5386 10.0805ZM2.23113 1.42909V1.27391H1.867L2.1192 1.53657L2.23113 1.42909ZM19.7444 14.4277L13.9341 8.32523L13.7093 8.53923L19.5196 14.6417L19.7444 14.4277ZM13.9341 8.53923L19.7444 2.43675L19.5196 2.22275L13.7093 8.32523L13.9341 8.53923ZM19.4768 2.32975V14.5347H19.7872V2.32975H19.4768ZM2.33645 15.5424L8.17868 9.40527L7.9539 9.19129L2.11167 15.3284L2.33645 15.5424ZM7.95435 9.40575L10.0014 11.5379L10.2253 11.3229L8.17822 9.19081L7.95435 9.40575ZM10.0015 11.5379C10.2986 11.8472 10.7837 11.8476 11.0801 11.5363L10.8553 11.3223C10.6814 11.5049 10.4005 11.5053 10.2253 11.3229L10.0015 11.5379ZM11.0801 11.5363L13.0761 9.43992L12.8513 9.22592L10.8553 11.3223L11.0801 11.5363ZM12.8513 9.43992L18.6616 15.5424L18.8864 15.3284L13.0761 9.22592L12.8513 9.43992ZM18.774 15.2802H2.22406V15.5906H18.774V15.2802ZM1.52254 14.5347V2.32303H1.2122V14.5347H1.52254ZM1.25544 2.4305L7.09341 8.51063L7.31727 8.29568L1.4793 2.21556L1.25544 2.4305ZM7.09296 8.29615L1.25499 14.4277L1.47975 14.6417L7.31772 8.51016L7.09296 8.29615ZM18.6623 1.32209L10.4262 9.9735L10.651 10.1875L18.8871 1.53608L18.6623 1.32209ZM10.6505 9.97302L2.34306 1.32161L2.1192 1.53657L10.4266 10.188L10.6505 9.97302ZM2.23113 1.58426H18.7747V1.27391H2.23113V1.58426ZM19.0266 -6.32021e-06H1.97339V0.310342H19.0266V-6.32021e-06ZM1.97339 -6.32021e-06C0.879412 -6.32021e-06 -0.000101031 0.933824 -0.000101031 2.06603H0.310247C0.310247 1.0907 1.06498 0.310342 1.97339 0.310342V-6.32021e-06ZM-0.000101031 2.06603V14.7973H0.310247V2.06603H-0.000101031ZM-0.000101031 14.7973C-0.000101031 15.9259 0.874868 16.8622 1.97339 16.8622V16.5519C1.06102 16.5519 0.310247 15.7696 0.310247 14.7973H-0.000101031ZM1.97339 16.8622H19.0266V16.5519H1.97339V16.8622ZM19.0266 16.8622C20.1169 16.8622 21.0001 15.9333 21.0001 14.7973H20.6898C20.6898 15.7755 19.9323 16.5519 19.0266 16.5519V16.8622ZM21.0001 14.7973V2.06603H20.6898V14.7973H21.0001ZM21.0001 2.06603C21.0001 0.938717 20.1242 -6.32021e-06 19.0266 -6.32021e-06V0.310342C19.9378 0.310342 20.6898 1.09475 20.6898 2.06603H21.0001Z" fill="#39474E"/>
</svg>
