<svg width="256" height="34" viewBox="0 0 256 34" fill="none" xmlns="http://www.w3.org/2000/svg">
<path fill-rule="evenodd" clip-rule="evenodd" d="M16 0C11.5817 0 8 3.58172 8 8V26C8 30.4183 4.41828 34 0 34H8H248H256C251.582 34 248 30.4183 248 26V8C248 3.58172 244.418 0 240 0H16Z" fill="white"/>
<path d="M228.281 19.8156C228.005 20.0918 228.005 20.5395 228.281 20.8156C228.557 21.0918 229.005 21.0918 229.281 20.8156L232.039 18.0578L234.797 20.8156C235.073 21.0918 235.521 21.0918 235.797 20.8156C236.073 20.5395 236.073 20.0918 235.797 19.8156L233.039 17.0578L235.797 14.3C236.073 14.0239 236.073 13.5761 235.797 13.3C235.521 13.0239 235.073 13.0239 234.797 13.3L232.039 16.0578L229.281 13.3C229.005 13.0239 228.557 13.0239 228.281 13.3C228.005 13.5761 228.005 14.0239 228.281 14.3L231.039 17.0578L228.281 19.8156Z" fill="#5E6063"/>
</svg>
